<svg xmlns="http://www.w3.org/2000/svg"  viewBox="0 0 64 64" width="96px" height="96px"><linearGradient id="Fa2fdFGw2gHxhFGmEcOUga" x1="19.517" x2="19.517" y1="5.975" y2="57.098" gradientUnits="userSpaceOnUse"><stop offset="0" stop-color="#6dc7ff"/><stop offset="1" stop-color="#e6abff"/></linearGradient><path fill="url(#Fa2fdFGw2gHxhFGmEcOUga)" d="M13.924,14.738c1.146-1.198,3.045-1.241,4.242-0.097c1.198,1.145,1.241,3.043,0.098,4.242	l0.725,0.692c1.889-1.978,4.224-3.527,6.841-4.485l-0.344-0.943c-1.553,0.566-3.278-0.233-3.847-1.79	c-0.567-1.556,0.233-3.278,1.79-3.847l-0.341-0.936c-3.78,1.384-7.153,3.621-9.882,6.478L13.924,14.738z"/><linearGradient id="Fa2fdFGw2gHxhFGmEcOUgb" x1="44.174" x2="44.174" y1="5.975" y2="57.098" gradientUnits="userSpaceOnUse"><stop offset="0" stop-color="#6dc7ff"/><stop offset="1" stop-color="#e6abff"/></linearGradient><path fill="url(#Fa2fdFGw2gHxhFGmEcOUgb)" d="M49.778,49.573c-0.587,0.594-1.36,0.891-2.134,0.891c-0.762,0-1.524-0.289-2.109-0.867	c-1.178-1.165-1.188-3.064-0.024-4.242l-0.715-0.707c-1.922,1.944-4.281,3.453-6.917,4.366l0.326,0.944	c1.566-0.544,3.273,0.291,3.815,1.856c0.541,1.566-0.29,3.274-1.856,3.815l0.327,0.947c3.809-1.32,7.21-3.507,9.98-6.32	L49.778,49.573z"/><linearGradient id="Fa2fdFGw2gHxhFGmEcOUgc" x1="20.201" x2="20.201" y1="5.975" y2="57.098" gradientUnits="userSpaceOnUse"><stop offset="0" stop-color="#6dc7ff"/><stop offset="1" stop-color="#e6abff"/></linearGradient><path fill="url(#Fa2fdFGw2gHxhFGmEcOUgc)" d="M24.346,55.801c-1.578-0.507-2.445-2.197-1.938-3.774c0.507-1.577,2.204-2.442,3.774-1.938	l0.306-0.953c-2.658-0.857-5.048-2.317-7.008-4.217l-0.698,0.72c1.189,1.153,1.22,3.052,0.066,4.242	c-0.589,0.607-1.371,0.912-2.154,0.912c-0.752,0-1.505-0.281-2.088-0.846l-0.692,0.713c2.832,2.746,6.285,4.854,10.126,6.092	L24.346,55.801z"/><linearGradient id="Fa2fdFGw2gHxhFGmEcOUgd" x1="13.346" x2="13.346" y1="6.231" y2="56.619" gradientUnits="userSpaceOnUse"><stop offset="0" stop-color="#1a6dff"/><stop offset="1" stop-color="#c822ff"/></linearGradient><path fill="url(#Fa2fdFGw2gHxhFGmEcOUgd)" d="M16.693,51.794c-1.045,0-2.033-0.4-2.784-1.127C8.809,45.723,6,39.094,6,32	c0-6.715,2.558-13.091,7.2-17.953c1.526-1.594,4.063-1.653,5.656-0.13c1.595,1.523,1.653,4.06,0.131,5.655	C15.771,22.939,14,27.353,14,32c0,4.91,1.945,9.499,5.478,12.921c1.583,1.536,1.623,4.073,0.088,5.656	C18.805,51.362,17.785,51.794,16.693,51.794z M16.095,14.812c-0.528,0-1.056,0.207-1.448,0.618C10.36,19.917,8,25.802,8,32	c0,6.547,2.593,12.667,7.302,17.23c0.767,0.744,2.082,0.723,2.828-0.044c0.767-0.792,0.747-2.06-0.045-2.828	C14.161,42.555,12,37.456,12,32c0-5.165,1.968-10.068,5.541-13.809c0.761-0.797,0.731-2.066-0.065-2.828	C17.089,14.995,16.592,14.812,16.095,14.812z"/><linearGradient id="Fa2fdFGw2gHxhFGmEcOUge" x1="39.228" x2="39.228" y1="6.231" y2="56.619" gradientUnits="userSpaceOnUse"><stop offset="0" stop-color="#1a6dff"/><stop offset="1" stop-color="#c822ff"/></linearGradient><path fill="url(#Fa2fdFGw2gHxhFGmEcOUge)" d="M47.645,51.464c-1.06,0-2.059-0.41-2.812-1.155c-1.567-1.551-1.582-4.088-0.032-5.656	C48.153,41.26,50,36.767,50,32c0-9.925-8.075-18-18-18c-2.121,0-4.197,0.365-6.172,1.085c-2.07,0.755-4.372-0.313-5.129-2.387	c-0.756-2.072,0.315-4.373,2.387-5.129C25.94,6.528,28.939,6,32,6c14.337,0,26,11.664,26,26c0,6.886-2.667,13.376-7.511,18.276	C49.732,51.042,48.722,51.464,47.645,51.464z M32,12c11.028,0,20,8.972,20,20c0,5.297-2.052,10.289-5.778,14.058	c-0.774,0.784-0.768,2.053,0.017,2.828c0.761,0.752,2.078,0.744,2.829-0.017C53.538,44.348,56,38.356,56,32C56,18.766,45.233,8,32,8	c-2.826,0-5.595,0.487-8.229,1.449c-1.036,0.378-1.571,1.529-1.193,2.564c0.379,1.037,1.529,1.569,2.564,1.193	C27.337,12.406,29.645,12,32,12z"/><linearGradient id="Fa2fdFGw2gHxhFGmEcOUgf" x1="32.224" x2="32.224" y1="6.231" y2="56.619" gradientUnits="userSpaceOnUse"><stop offset="0" stop-color="#1a6dff"/><stop offset="1" stop-color="#c822ff"/></linearGradient><path fill="url(#Fa2fdFGw2gHxhFGmEcOUgf)" d="M32,58c-2.709,0-5.388-0.419-7.96-1.247c-2.1-0.675-3.26-2.933-2.585-5.032	c0.327-1.017,1.031-1.846,1.984-2.334c0.953-0.487,2.036-0.576,3.048-0.25c3.685,1.184,7.729,1.141,11.391-0.124	c1.008-0.35,2.094-0.285,3.056,0.183c0.96,0.468,1.682,1.281,2.031,2.291c0.349,1.01,0.283,2.096-0.184,3.057	c-0.468,0.961-1.282,1.682-2.292,2.031C37.752,57.521,34.896,58,32,58z M25.265,50.945c-0.313,0-0.625,0.075-0.913,0.222	c-0.477,0.244-0.829,0.658-0.992,1.166c-0.338,1.05,0.242,2.179,1.292,2.516c4.913,1.58,10.293,1.525,15.186-0.165	c0.505-0.174,0.912-0.535,1.146-1.015s0.267-1.023,0.092-1.528c-0.175-0.505-0.536-0.913-1.017-1.146	c-0.479-0.233-1.021-0.267-1.525-0.091c-4.069,1.404-8.562,1.454-12.656,0.138C25.676,50.977,25.47,50.945,25.265,50.945z"/></svg>